<svg width="12" height="13" viewBox="0 0 12 13" fill="none" xmlns="http://www.w3.org/2000/svg">
<path d="M10.4733 12.1656L6.53583 8.22815C6.22333 8.47815 5.86395 8.67607 5.4577 8.8219C5.05145 8.96773 4.61916 9.04065 4.16083 9.04065C3.02541 9.04065 2.06458 8.64732 1.27833 7.86065C0.492078 7.07398 0.0987443 6.11315 0.0983276 4.97815C0.0983276 3.84273 0.491661 2.8819 1.27833 2.09565C2.06499 1.3094 3.02583 0.916066 4.16083 0.915649C5.29624 0.915649 6.25708 1.30898 7.04333 2.09565C7.82958 2.88232 8.22291 3.84315 8.22333 4.97815C8.22333 5.43648 8.15041 5.86877 8.00458 6.27502C7.85874 6.68127 7.66083 7.04065 7.41083 7.35315L11.3483 11.2906L10.4733 12.1656ZM4.16083 7.79065C4.94208 7.79065 5.60624 7.51711 6.15333 6.97002C6.70041 6.42294 6.97374 5.75898 6.97333 4.97815C6.97333 4.1969 6.69979 3.53273 6.1527 2.98565C5.60562 2.43857 4.94166 2.16523 4.16083 2.16565C3.37958 2.16565 2.71541 2.43919 2.16833 2.98627C1.62124 3.53336 1.34791 4.19732 1.34833 4.97815C1.34833 5.7594 1.62187 6.42357 2.16895 6.97065C2.71604 7.51773 3.37999 7.79107 4.16083 7.79065Z" fill="black"/>
</svg>
