<svg width="38" height="38" viewBox="0 0 38 38" fill="none" xmlns="http://www.w3.org/2000/svg">
<path d="M27.3728 24.3502C29.5839 21.333 30.5742 17.5921 30.1456 13.8761C29.7171 10.1601 27.9012 6.74289 25.0613 4.3082C22.2215 1.87351 18.567 0.600875 14.8291 0.744903C11.0912 0.88893 7.54556 2.439 4.90146 5.08499C2.25736 7.73099 0.709825 11.2778 0.568472 15.0158C0.427119 18.7538 1.70237 22.4073 4.13909 25.2454C6.57581 28.0835 9.9943 29.897 13.7106 30.3229C17.427 30.7488 21.1671 29.7558 24.1827 27.5425H24.1804C24.2489 27.6339 24.322 27.7206 24.4042 27.8051L33.1957 36.5966C33.6239 37.0251 34.2047 37.2659 34.8105 37.2661C35.4162 37.2663 35.9972 37.0259 36.4257 36.5977C36.8542 36.1696 37.095 35.5887 37.0952 34.983C37.0955 34.3772 36.855 33.7962 36.4269 33.3677L27.6354 24.5763C27.5537 24.4936 27.466 24.4196 27.3728 24.3502ZM27.9619 15.5724C27.9619 17.2217 27.6371 18.8549 27.0059 20.3786C26.3747 21.9024 25.4496 23.2869 24.2834 24.4531C23.1172 25.6194 21.7326 26.5445 20.2089 27.1756C18.6851 27.8068 17.052 28.1317 15.4027 28.1317C13.7534 28.1317 12.1202 27.8068 10.5964 27.1756C9.07269 26.5445 7.68817 25.6194 6.52193 24.4531C5.3557 23.2869 4.43059 21.9024 3.79943 20.3786C3.16827 18.8549 2.84341 17.2217 2.84341 15.5724C2.84341 12.2415 4.16662 9.04699 6.52193 6.69168C8.87725 4.33636 12.0717 3.01316 15.4027 3.01316C18.7336 3.01316 21.9281 4.33636 24.2834 6.69168C26.6387 9.04699 27.9619 12.2415 27.9619 15.5724Z" fill="black" fill-opacity="0.39"/>
</svg>
